<svg width="222" height="63" viewBox="0 0 222 63" fill="none" xmlns="http://www.w3.org/2000/svg">
<path d="M25.52 61.981C19.3355 60.8464 13.682 57.7473 9.39898 53.144C3.44198 47.099 0.816976 41.012 0.525976 32.429C0.359976 27.779 0.442983 27.06 1.48398 23.974C5.02498 13.236 15.648 3.51299 26.479 1.14499C31.061 0.129992 38.018 0.636992 43.141 2.41299C54.346 6.26099 61.719 17.337 62.386 31.246C62.761 38.475 61.719 42.575 58.137 48.325C55.3102 52.7271 51.4192 56.3454 46.8237 58.8454C42.2282 61.3454 37.0765 62.6464 31.845 62.628C29.7201 62.6281 27.6008 62.4113 25.52 61.981ZM8.06598 16.787C2.02498 24.777 1.35898 34.712 6.14998 44.478C8.93709 49.6461 13.1826 53.8805 18.358 56.654C22.4929 58.9413 27.1753 60.0525 31.897 59.867C36.3857 60.0366 40.8393 59.0157 44.806 56.908C49.3481 54.737 53.1847 51.3272 55.8739 47.0712C58.563 42.8153 59.9954 37.8863 60.006 32.852C60.006 30.02 58.715 22.326 58.173 21.776C58.089 21.692 57.548 21.861 56.923 22.114C56.215 22.452 55.882 22.875 56.049 23.298C56.9508 26.4052 57.441 29.6173 57.507 32.852C57.507 39.659 55.383 44.605 50.259 49.805C44.635 55.512 38.595 57.837 30.43 57.456C18.358 56.907 9.39798 49.762 6.85798 38.644C5.94198 34.712 6.23298 27.821 7.44098 24.439C8.69309 20.9428 10.682 17.7565 13.273 15.096C14.097 14.2948 14.8237 13.3993 15.438 12.428C15.2968 12.0099 15.036 11.6423 14.688 11.371C14.4181 11.0717 14.0928 10.8275 13.73 10.652C13.397 10.657 9.43998 14.969 8.06498 16.787H8.06598ZM19.066 50.776C18.316 51.495 17.941 52.214 18.149 52.51C18.649 53.355 22.649 54.962 25.981 55.639C34.895 57.539 43.269 55.132 49.392 49.001C55.557 42.786 57.556 35.135 55.392 25.961C54.85 23.594 54.601 23.466 52.81 24.439C51.893 24.947 51.685 25.327 51.852 26.003C51.977 26.51 52.268 28.286 52.518 29.977C54.893 45.534 37.605 57.71 22.983 50.777L20.275 49.509L19.066 50.776ZM10.276 21.649C8.43152 24.9244 7.48332 28.6282 7.52698 32.387C7.44028 35.4959 7.97813 38.5906 9.10869 41.488C10.2393 44.3853 11.9396 47.0264 14.109 49.255L16.525 51.665L19.233 48.833L16.942 46.465C14.7523 44.0821 13.1014 41.2556 12.1017 38.1777C11.1019 35.0999 10.7766 31.8428 11.148 28.628C11.7265 24.6526 13.4302 20.9256 16.058 17.887C17.808 15.987 17.933 15.731 17.433 14.928C17.141 14.42 16.683 14.04 16.391 14.04C15.563 14.039 11.772 18.774 10.273 21.649H10.276ZM22.478 47.268C21.312 48.325 21.478 48.663 23.894 49.762C35.183 55.047 49.594 47.396 51.263 35.219C51.721 31.879 50.847 25.581 49.971 26.088C49.18 26.596 48.679 25.788 49.346 25.073C49.929 24.439 49.888 24.143 48.971 22.156C47.8905 19.8754 46.3113 17.8669 44.3499 16.279C42.3886 14.691 40.0954 13.5642 37.64 12.982C33.7339 12.147 29.6896 12.2048 25.809 13.151C23.393 13.912 20.019 15.687 20.019 16.151C20.2456 16.6124 20.573 17.0171 20.977 17.335L21.894 18.223L24.977 16.659C27.934 15.18 28.268 15.095 32.309 15.095C36.183 15.095 36.683 15.18 39.266 16.49C42.3319 17.987 44.7887 20.4943 46.223 23.59C48.514 28.49 49.056 35.09 47.473 38.26C45.5965 42.1437 42.3774 45.2168 38.4107 46.9109C34.4441 48.6051 29.9982 48.8058 25.895 47.476C25.1137 47.1312 24.2886 46.8956 23.443 46.776C23.2567 46.7863 23.0747 46.8354 22.9086 46.9201C22.7424 47.0049 22.5957 47.1233 22.478 47.268ZM14.105 23.168C12.5073 26.5064 11.9418 30.2455 12.481 33.907C13.272 38.98 14.605 41.854 17.896 45.407C19.937 47.648 20.396 47.817 21.479 46.591C22.228 45.745 22.187 45.703 20.521 44.224C19.1345 42.8679 18.0177 41.2612 17.23 39.489C15.73 36.403 15.647 36.107 15.647 32.006C15.647 27.948 15.731 27.567 17.188 24.566C17.8642 23.078 18.7326 21.6852 19.771 20.423L20.812 19.408L19.979 18.225C19.52 17.549 18.979 16.999 18.77 16.999C18.058 16.999 15.313 20.677 14.105 23.171V23.168ZM25.105 44.56C24.272 45.405 24.522 45.701 26.938 46.42C30.6264 47.4047 34.5373 47.1381 38.058 45.662C41.3874 43.9138 44.1696 41.2804 46.098 38.052C47.306 35.642 47.431 32.345 46.431 27.99C45.9892 25.6173 44.9666 23.391 43.4546 21.51C41.9426 19.6289 39.9882 18.1516 37.766 17.21C34.8142 16.2997 31.6923 16.0827 28.643 16.576C26.477 17.125 22.936 19.028 22.936 19.62C23.0416 20.0821 23.2723 20.5063 23.603 20.846C24.686 22.072 23.853 22.706 22.686 21.607L21.686 20.635L20.477 21.818C19.4995 22.9536 18.6853 24.2202 18.058 25.581C17.058 27.863 16.892 28.709 16.892 32.007C16.892 35.305 17.059 36.15 18.058 38.391C18.8393 40.0171 19.8648 41.5141 21.099 42.83C22.807 44.521 22.973 44.606 23.973 44.056C24.2828 43.8636 24.6351 43.7503 24.999 43.726C25.467 43.728 25.61 44.048 25.102 44.562L25.105 44.56ZM32.02 11.035C41.685 11.077 47.35 14.882 51.099 23.676C51.224 23.93 54.182 22.323 54.182 21.985C54.182 21.224 51.932 17.123 50.433 15.052C47.9695 12.0212 44.6874 9.76165 40.977 8.54199C37.936 7.61199 31.477 7.14699 28.977 7.69599C25.7126 8.50826 22.5833 9.78995 19.687 11.501C17.521 12.854 17.48 12.896 18.229 13.783C18.5331 14.0878 18.7987 14.4286 19.02 14.798C19.8332 14.5266 20.6044 14.1426 21.311 13.657C24.4769 11.8588 28.071 10.9523 31.711 11.034L32.02 11.035ZM44.52 8.58299C48.5485 10.7542 51.8182 14.1035 53.892 18.183C54.3727 19.2883 55.0172 20.3148 55.804 21.228C56.1838 21.1142 56.5377 20.9273 56.846 20.678C57.554 20.128 57.512 19.959 56.055 16.958C53.6825 12.6423 50.2023 9.03718 45.973 6.51399C44.1758 5.60752 42.2916 4.88518 40.349 4.35799C36.3321 3.36934 32.1744 3.08345 28.06 3.51299C24.4031 4.26758 20.9155 5.68601 17.77 7.69799L15.021 9.47299L15.895 10.699L16.729 11.925L18.104 10.868C21.0921 8.88298 24.4053 7.43773 27.893 6.59799C29.612 6.24119 31.3633 6.06357 33.119 6.06799C37.0572 6.05376 40.9494 6.91377 44.515 8.58599L44.52 8.58299ZM26.52 42.461C19.896 39.212 17.563 30.631 21.812 25.049C23.6139 22.7601 26.1664 21.1813 29.019 20.591C33.976 19.8 38.519 21.549 40.891 25.132C42.3672 27.6637 43.0327 30.5868 42.798 33.508C42.5837 34.3182 42.6726 35.1787 43.048 35.928C43.423 36.303 43.298 36.47 42.59 36.636C42.09 36.803 41.673 37.052 41.673 37.261C41.673 38.011 38.132 41.468 36.466 42.301C34.9928 42.9516 33.4102 43.3191 31.801 43.384C31.175 43.423 30.663 43.446 30.218 43.446C28.9161 43.4587 27.6349 43.1194 26.51 42.464L26.52 42.461ZM26.312 22.882C24.5387 23.7478 23.0775 25.1423 22.1299 26.8733C21.1823 28.6043 20.7948 30.5866 21.021 32.547C21.812 38.212 26.021 42.211 31.269 42.211C34.81 42.211 38.809 39.961 40.225 37.171C40.85 36.005 40.808 35.963 39.559 35.338C38.351 34.713 38.226 34.713 37.684 35.422C37.4305 35.7324 37.2332 36.0847 37.101 36.463C36.5961 37.0303 35.9884 37.4968 35.31 37.838C34.2695 38.4389 33.1048 38.7928 31.9059 38.8723C30.707 38.9519 29.5058 38.7551 28.395 38.297C26.7677 37.4743 25.5018 36.0794 24.8405 34.3801C24.1792 32.6809 24.169 30.7973 24.812 29.091C27.551 21.844 38.049 23.428 38.674 31.175C38.841 33.216 39.007 33.591 40.049 34.132C41.174 34.715 41.258 34.674 41.507 33.674C41.72 31.4793 41.4056 29.2655 40.59 27.217C39.6833 25.179 38.0711 23.5369 36.05 22.593C34.6611 22.0137 33.1665 21.7313 31.662 21.764C29.8146 21.7382 27.9843 22.121 26.302 22.885L26.312 22.882ZM28.894 26.423C28.1222 26.794 27.4411 27.3297 26.8986 27.9923C26.3562 28.6549 25.9655 29.4283 25.7542 30.2582C25.5428 31.088 25.5159 31.9541 25.6754 32.7954C25.8348 33.6368 26.1767 34.433 26.677 35.128C28.843 38.211 32.801 38.503 35.758 35.836C37.008 34.67 36.924 34.045 35.425 33.253C33.092 32.05 34.258 31.383 36.841 32.428C37.549 32.761 37.632 32.636 37.424 31.053C37.3093 29.9902 36.9074 28.9788 36.2616 28.127C35.6158 27.2752 34.7503 26.6153 33.758 26.218C33.0314 25.8662 32.2443 25.6564 31.439 25.6C30.5352 25.6755 29.6611 25.9589 28.885 26.428L28.894 26.423Z" fill="#23D899"/>
<path d="M86.016 22.072V25.494H81.028V40.342H76.62V25.494H71.748V22.072H86.016Z" fill="black"/>
<path d="M92.5915 22.072V40.342H88.1835V22.072H92.5915Z" fill="black"/>
<path d="M97.6137 22.072H103.124L105.096 28.481C105.212 28.8676 105.347 29.322 105.502 29.844C105.656 30.3466 105.801 30.8783 105.937 31.439C106.091 31.9803 106.227 32.5313 106.343 33.092C106.478 33.6526 106.584 34.1746 106.662 34.658H106.807C106.884 34.136 106.99 33.5753 107.126 32.976C107.28 32.3573 107.425 31.7676 107.561 31.207C107.715 30.627 107.86 30.0953 107.996 29.612C108.131 29.1286 108.237 28.7516 108.315 28.481L110.229 22.072H115.739L117.044 40.342H112.926L112.607 34.165C112.568 33.585 112.539 32.9566 112.52 32.28C112.5 31.584 112.481 30.8783 112.462 30.163C112.462 29.4476 112.462 28.742 112.462 28.046C112.462 27.35 112.462 26.712 112.462 26.132H112.375C112.239 26.77 112.085 27.4273 111.911 28.104C111.756 28.7806 111.592 29.4573 111.418 30.134C111.244 30.7913 111.07 31.439 110.896 32.077C110.722 32.6956 110.548 33.266 110.374 33.788L108.344 40.342H105.038L102.921 33.817C102.747 33.2756 102.573 32.6956 102.399 32.077C102.225 31.439 102.051 30.7913 101.877 30.134C101.722 29.4573 101.567 28.7806 101.413 28.104C101.258 27.4273 101.123 26.77 101.007 26.132H100.92C100.939 26.7506 100.939 27.4273 100.92 28.162C100.92 28.8773 100.91 29.6023 100.891 30.337C100.871 31.0523 100.842 31.7483 100.804 32.425C100.784 33.0823 100.765 33.6623 100.746 34.165L100.427 40.342H96.3667L97.6137 22.072Z" fill="black"/>
<path d="M127.682 22.072C129.634 22.072 131.191 22.4973 132.351 23.348C133.511 24.1986 134.091 25.378 134.091 26.886C134.091 27.4466 133.984 27.9493 133.772 28.394C133.578 28.8386 133.317 29.2253 132.989 29.554C132.66 29.8633 132.293 30.1243 131.887 30.337C131.5 30.5496 131.113 30.6946 130.727 30.772C131.249 30.8686 131.742 31.033 132.206 31.265C132.689 31.4776 133.105 31.7676 133.453 32.135C133.82 32.483 134.11 32.9083 134.323 33.411C134.535 33.9136 134.642 34.4936 134.642 35.151C134.642 35.905 134.477 36.601 134.149 37.239C133.82 37.877 133.346 38.428 132.728 38.892C132.109 39.3366 131.355 39.6943 130.466 39.965C129.596 40.2163 128.619 40.342 127.537 40.342H120.809V22.072H127.682ZM125.217 29.264H126.986C127.817 29.264 128.455 29.0803 128.9 28.713C129.344 28.3263 129.567 27.8236 129.567 27.205C129.567 26.625 129.354 26.1803 128.929 25.871C128.503 25.5423 127.865 25.378 127.015 25.378H125.217V29.264ZM125.217 37.036H126.928C127.875 37.036 128.639 36.862 129.219 36.514C129.818 36.166 130.118 35.5763 130.118 34.745C130.118 33.9716 129.828 33.411 129.248 33.063C128.668 32.715 127.904 32.541 126.957 32.541H125.217V37.036Z" fill="black"/>
<path d="M137.659 22.072H149.839V25.436H142.067V29.177H149.085V32.512H142.067V36.978H149.926V40.342H137.659V22.072Z" fill="black"/>
<path d="M152.839 22.072H160.089C161.133 22.072 162.051 22.2266 162.844 22.536C163.656 22.826 164.323 23.232 164.845 23.754C165.386 24.276 165.792 24.885 166.063 25.581C166.333 26.277 166.469 27.0213 166.469 27.814C166.469 28.568 166.353 29.235 166.121 29.815C165.908 30.3756 165.628 30.8686 165.28 31.294C164.932 31.7193 164.555 32.0673 164.149 32.338C163.743 32.6086 163.366 32.8213 163.018 32.976L167.397 40.342H162.322L159.074 33.759H157.247V40.342H152.839V22.072ZM157.247 30.424H158.581C159.586 30.424 160.398 30.221 161.017 29.815C161.635 29.409 161.945 28.7516 161.945 27.843C161.945 27.089 161.693 26.4896 161.191 26.045C160.688 25.6003 159.963 25.378 159.016 25.378H157.247V30.424Z" fill="black"/>
<path d="M169.746 40.342V22.072H174.154V29.177H180.505V22.072H184.913V40.342H180.505V32.599H174.154V40.342H169.746Z" fill="black"/>
<path d="M188.749 22.072H193.157V33.005C193.157 34.3776 193.437 35.441 193.998 36.195C194.559 36.949 195.429 37.326 196.608 37.326C197.768 37.326 198.599 36.9586 199.102 36.224C199.624 35.47 199.885 34.513 199.885 33.353V22.072H204.293V32.976C204.293 38.0993 201.731 40.661 196.608 40.661C194.172 40.661 192.248 40.023 190.837 38.747C189.445 37.471 188.749 35.499 188.749 32.831V22.072Z" fill="black"/>
<path d="M214.993 22.072C216.946 22.072 218.502 22.4973 219.662 23.348C220.822 24.1986 221.402 25.378 221.402 26.886C221.402 27.4466 221.296 27.9493 221.083 28.394C220.89 28.8386 220.629 29.2253 220.3 29.554C219.971 29.8633 219.604 30.1243 219.198 30.337C218.811 30.5496 218.425 30.6946 218.038 30.772C218.56 30.8686 219.053 31.033 219.517 31.265C220 31.4776 220.416 31.7676 220.764 32.135C221.131 32.483 221.421 32.9083 221.634 33.411C221.847 33.9136 221.953 34.4936 221.953 35.151C221.953 35.905 221.789 36.601 221.46 37.239C221.131 37.877 220.658 38.428 220.039 38.892C219.42 39.3366 218.666 39.6943 217.777 39.965C216.907 40.2163 215.931 40.342 214.848 40.342H208.12V22.072H214.993ZM212.528 29.264H214.297C215.128 29.264 215.766 29.0803 216.211 28.713C216.656 28.3263 216.878 27.8236 216.878 27.205C216.878 26.625 216.665 26.1803 216.24 25.871C215.815 25.5423 215.177 25.378 214.326 25.378H212.528V29.264ZM212.528 37.036H214.239C215.186 37.036 215.95 36.862 216.53 36.514C217.129 36.166 217.429 35.5763 217.429 34.745C217.429 33.9716 217.139 33.411 216.559 33.063C215.979 32.715 215.215 32.541 214.268 32.541H212.528V37.036Z" fill="black"/>
</svg>
