<svg width="19" height="14" viewBox="0 0 19 14" fill="none" xmlns="http://www.w3.org/2000/svg">
<path fill-rule="evenodd" clip-rule="evenodd" d="M1.81437 9.51526C1.3496 9.51526 0.972839 9.85689 0.972839 10.2783C0.972839 10.6997 1.3496 11.0414 1.81437 11.0414H8.1414C8.60617 11.0414 8.98293 10.6997 8.98293 10.2783C8.98293 9.85689 8.60617 9.51526 8.1414 9.51526H1.81437ZM18.083 11.0414H12.5979V12.737C12.5979 13.1584 12.2212 13.5 11.7564 13.5C11.2917 13.5 10.9149 13.1584 10.9149 12.737V10.3024C10.9146 10.2944 10.9145 10.2864 10.9145 10.2783C10.9145 10.2703 10.9146 10.2622 10.9149 10.2542V7.81956C10.9149 7.39814 11.2917 7.05651 11.7564 7.05651C12.2212 7.05651 12.5979 7.39814 12.5979 7.81956V9.51526H18.083C18.5478 9.51526 18.9246 9.85689 18.9246 10.2783C18.9246 10.6997 18.5478 11.0414 18.083 11.0414ZM9.10761 3.72163C9.10761 3.30022 9.48437 2.95859 9.94913 2.95859L18.0839 2.95859C18.5487 2.95859 18.9254 3.30022 18.9254 3.72163C18.9254 4.14305 18.5487 4.48468 18.0839 4.48468L9.94913 4.48468C9.48437 4.48468 9.10761 4.14305 9.10761 3.72163ZM1.81437 2.95859C1.3496 2.95859 0.972839 3.30022 0.972839 3.72163C0.972839 4.14305 1.3496 4.48468 1.81437 4.48468H5.49167V6.18041C5.49167 6.60182 5.86843 6.94345 6.33319 6.94345C6.79796 6.94345 7.17472 6.60182 7.17472 6.18041V3.74774C7.17504 3.73907 7.17521 3.73037 7.17521 3.72163C7.17521 3.7129 7.17504 3.7042 7.17472 3.69553V1.26301C7.17472 0.841589 6.79796 0.499963 6.33319 0.499963C5.86843 0.499963 5.49167 0.841589 5.49167 1.26301V2.95859H1.81437Z" fill="#3F434A"/>
</svg>
